<?xml version="1.0" standalone="no"?>
<!DOCTYPE svg PUBLIC "-//W3C//DTD SVG 20010904//EN"
 "http://www.w3.org/TR/2001/REC-SVG-20010904/DTD/svg10.dtd">
<svg version="1.0" xmlns="http://www.w3.org/2000/svg"
 width="120.000000pt" height="120.000000pt" viewBox="0 0 120.000000 120.000000"
 preserveAspectRatio="xMidYMid meet">
<metadata>
Created by potrace 1.14, written by Peter Selinger 2001-2017
</metadata>
<g transform="translate(0.000000,120.000000) scale(0.100000,-0.100000)"
fill="#000000" stroke="none">
<path d="M466 1094 c-9 -8 -16 -24 -16 -35 0 -19 -1 -19 -22 -5 -50 35 -94 2
-83 -61 l6 -39 -35 4 c-27 3 -37 0 -45 -16 -6 -11 -8 -27 -5 -35 7 -20 -20
-28 -55 -16 -56 20 -95 -25 -68 -78 14 -26 13 -29 -19 -69 -19 -22 -34 -50
-34 -61 0 -12 -11 -28 -25 -37 -30 -20 -32 -45 -5 -79 13 -16 16 -28 10 -32
-5 -3 -10 -13 -10 -21 0 -17 38 -75 58 -87 6 -4 12 -23 12 -42 0 -22 8 -41 21
-54 12 -11 27 -30 33 -43 8 -15 21 -23 37 -23 14 -1 38 -10 52 -22 14 -11 40
-26 57 -33 21 -9 29 -18 25 -29 -3 -10 1 -26 9 -36 13 -18 18 -18 49 -7 30 11
40 10 70 -4 42 -20 67 -13 67 18 0 13 5 30 10 38 7 11 10 5 10 -22 0 -32 3
-38 22 -38 11 0 36 11 53 25 l32 24 34 -25 c43 -32 73 -28 77 8 4 36 11 35 47
-2 36 -38 69 -37 73 2 l3 27 32 -19 c31 -19 77 -26 89 -14 4 3 -4 29 -17 57
l-24 51 21 10 c12 6 26 20 32 30 6 11 19 28 29 38 9 10 17 24 17 32 0 8 9 17
19 21 28 9 35 40 18 75 -9 17 -11 32 -6 36 13 8 11 68 -3 82 -15 15 -17 61 -5
90 7 15 7 29 0 45 -6 12 -16 37 -23 55 -7 17 -17 32 -22 32 -5 0 -7 13 -3 29
10 46 -9 71 -53 71 -46 0 -62 14 -62 56 0 42 -20 57 -70 52 -30 -3 -41 0 -45
13 -8 23 -46 38 -72 28 -13 -5 -23 -12 -23 -17 0 -19 -59 4 -80 31 -24 30 -60
36 -80 12 -11 -13 -15 -12 -37 5 -31 24 -56 25 -77 4z m-155 -741 c15 -39 11
-83 -7 -83 -20 0 -47 66 -40 96 8 29 34 22 47 -13z m163 -3 c14 -5 26 -15 26
-21 0 -7 7 -20 15 -29 35 -39 -23 -76 -70 -46 -27 18 -31 41 -13 81 13 29 10
28 42 15z"/>
</g>
</svg>
